<mxfile host="app.diagrams.net" modified="2022-12-08T11:01:51.346Z" agent="5.0 (Macintosh; Intel Mac OS X 10_15_7) AppleWebKit/537.36 (KHTML, like Gecko) Chrome/108.0.0.0 Safari/537.36" etag="ynxcCD3eaAWJu3yhhffT" version="20.5.1" type="github">
  <diagram id="t9sUDgmY1rG62_aLtfS_" name="ページ1">
    <mxGraphModel dx="2066" dy="1190" grid="1" gridSize="10" guides="1" tooltips="1" connect="1" arrows="1" fold="1" page="1" pageScale="1" pageWidth="827" pageHeight="1169" math="0" shadow="0">
      <root>
        <mxCell id="0" />
        <mxCell id="1" parent="0" />
        <mxCell id="2NuNlHKh36lMKqr2MWiC-1" value="ユーザー" style="shape=umlActor;verticalLabelPosition=bottom;verticalAlign=top;html=1;outlineConnect=0;" vertex="1" parent="1">
          <mxGeometry x="80" y="430" width="30" height="60" as="geometry" />
        </mxCell>
        <mxCell id="2NuNlHKh36lMKqr2MWiC-5" value="proxy&lt;br&gt;コントラクト" style="whiteSpace=wrap;html=1;aspect=fixed;" vertex="1" parent="1">
          <mxGeometry x="240" y="420" width="80" height="80" as="geometry" />
        </mxCell>
        <mxCell id="2NuNlHKh36lMKqr2MWiC-6" value="logic&lt;br&gt;コントラクト&lt;br&gt;(更新前)" style="whiteSpace=wrap;html=1;aspect=fixed;" vertex="1" parent="1">
          <mxGeometry x="440" y="340" width="80" height="80" as="geometry" />
        </mxCell>
        <mxCell id="2NuNlHKh36lMKqr2MWiC-7" value="logic&lt;br&gt;コントラクト&lt;br&gt;(更新後)" style="whiteSpace=wrap;html=1;aspect=fixed;" vertex="1" parent="1">
          <mxGeometry x="440" y="520" width="80" height="80" as="geometry" />
        </mxCell>
      </root>
    </mxGraphModel>
  </diagram>
</mxfile>
